<svg width="61" height="38" viewBox="0 0 61 38" fill="none" xmlns="http://www.w3.org/2000/svg">
<path fill-rule="evenodd" clip-rule="evenodd" d="M33.0445 24.7007H0.128906L23.9064 2.06263C25.9326 0.133579 28.8462 -0.500421 31.5088 0.407466C34.1708 1.31592 36.0621 3.58986 36.444 6.34114L40.2427 33.6803C40.3565 34.4969 40.8979 35.1405 41.6909 35.4003C42.4839 35.6612 43.3089 35.4651 43.8967 34.8796L54.0919 24.7007H42.4153L42.0248 22.2131H60.1289L45.6925 36.6266C44.796 37.5221 43.6063 38 42.3816 38C41.8859 38 41.3838 37.9211 40.8939 37.7605C39.1936 37.2031 37.986 35.7689 37.7424 34.0179L33.9438 6.67927C33.6877 4.83307 32.4687 3.36782 30.6826 2.75862C28.8971 2.14829 27.0196 2.55799 25.6593 3.85192L6.37344 22.2131H32.6895L33.0445 24.7007ZM53.3268 11.7352H51.037V0.0302155H53.3268L57.6697 7.70584H57.7034V0.0302155H60.0105V11.7352H57.7544L53.3611 4.05963H53.3268V11.7352Z" fill="#EEFF00"/>
</svg>
