<svg width="9" height="8" viewBox="0 0 9 8" fill="none" xmlns="http://www.w3.org/2000/svg">
<path fill-rule="evenodd" clip-rule="evenodd" d="M1.07848 0.000183105H4.18204C6.06986 0.000183105 7.50086 1.058 8.03321 2.59731H9V3.52767H8.2368C8.25175 3.67469 8.25936 3.82447 8.25936 3.97663V3.99949C8.25936 4.17082 8.24972 4.33924 8.23084 4.50419H9V5.43456H8.01482C7.46844 6.95243 6.04851 8.00018 4.18204 8.00018H1.07848V5.43456H0V4.50419H1.07848V3.52767H0V2.59731H1.07848V0.000183105ZM1.9461 5.43456V7.16558H4.18204C5.56183 7.16558 6.58696 6.47229 7.06414 5.43456H1.9461ZM7.32995 4.50419H1.9461V3.52767H7.33133C7.3513 3.68134 7.36147 3.83886 7.36147 3.99949V4.02235C7.36147 4.18667 7.35083 4.34754 7.32995 4.50419ZM4.18204 0.833403C5.56819 0.833403 6.59639 1.54499 7.0707 2.59731H1.9461V0.833403H4.18204Z" fill="#F3C253"/>
</svg>
