<svg width="8" height="12" viewBox="0 0 8 12" fill="none" xmlns="http://www.w3.org/2000/svg">
<path d="M8 3.6843C7.95449 3.73036 7.90239 3.75304 7.83611 3.75235C7.60725 3.7496 7.37839 3.74754 7.14986 3.7527C7.03576 3.75545 6.98893 3.70286 6.96585 3.59116C6.65356 2.07716 5.44429 1.05397 3.97386 1.05568C2.57597 1.0574 1.30339 2.18543 1.07355 3.62484C1.03265 3.8809 1.0132 4.13867 1.0132 4.39816C1.0132 6.12319 1.0132 7.84856 1.0132 9.57359C1.0132 9.63065 1.0132 9.6877 1.0132 9.78359C1.18566 9.56053 1.33703 9.366 1.4874 9.17078C1.75748 8.81986 2.0269 8.46894 2.29666 8.11768C2.42988 7.94446 2.47044 7.94102 2.61917 8.09534C2.97532 8.4655 3.33378 8.83326 3.68531 9.20824C3.7694 9.29829 3.81128 9.31685 3.90164 9.2079C4.52952 8.45244 5.16498 7.70387 5.79814 6.95288C5.94324 6.78103 5.96005 6.78035 6.12823 6.9247C6.39798 7.15635 6.66906 7.38697 6.93782 7.61622C6.98959 7.59216 6.9698 7.5492 6.9698 7.51758C6.97112 6.98313 6.96716 6.44867 6.97376 5.91422C6.97508 5.79668 6.9365 5.77502 6.83493 5.77846C6.59618 5.78602 6.3571 5.77915 6.11834 5.7819C6.04876 5.78259 5.99237 5.76677 5.93829 5.71763C5.66689 5.47051 5.39252 5.22682 5.11947 4.98176C5.06869 4.93605 5.01593 4.88931 5.04527 4.8082C5.07495 4.72537 5.14454 4.7319 5.21181 4.7319C6.07613 4.73224 6.94046 4.7343 7.80445 4.72983C7.93866 4.72915 7.9812 4.77795 7.98087 4.91474C7.97791 6.41224 7.97923 7.90974 7.97857 9.40759C7.97857 9.57703 7.939 9.6138 7.77675 9.58837C7.61681 9.56328 7.47864 9.48664 7.35794 9.37597C6.9731 9.02333 6.58529 8.67379 6.20705 8.31324C6.10911 8.2201 6.06756 8.23591 5.98874 8.33352C5.33778 9.13812 4.68088 9.93757 4.02563 10.7384C3.8957 10.8972 3.87262 10.8982 3.72818 10.748C3.3684 10.3741 3.00566 10.0032 2.65215 9.62309C2.55915 9.52307 2.51595 9.51585 2.42823 9.63202C1.94479 10.2723 1.45443 10.9068 0.961753 11.5396C0.76653 11.7901 0.517555 11.9554 0.202956 11.9956C0.0506026 12.0149 0.00674502 11.9761 0.00674502 11.819C0.00608548 9.25258 -0.0110654 6.68583 0.0120184 4.11942C0.0308152 2.03179 1.47191 0.358662 3.46931 0.036959C3.50625 0.0311161 3.55307 0.0507069 3.57616 0.000183105C3.85086 0.000183105 4.12522 0.000183105 4.39992 0.000183105C4.40685 0.0242421 4.42498 0.0276791 4.44609 0.0304287C6.04349 0.251084 7.14755 1.14161 7.77246 2.68379C7.87436 2.93503 7.91228 3.20621 8 3.46158C8 3.53616 8 3.6104 8 3.6843Z" fill="#E0F000"/>
</svg>
